<svg width="16" height="16" viewBox="0 0 16 16" fill="none" xmlns="http://www.w3.org/2000/svg">
<path d="M2.13333 5.8667C0.957067 5.8667 0 6.82377 0 8.00003C0 9.1763 0.957067 10.1334 2.13333 10.1334C3.3096 10.1334 4.26667 9.1763 4.26667 8.00003C4.26667 6.82377 3.3096 5.8667 2.13333 5.8667ZM2.13333 9.60003C1.25093 9.60003 0.533333 8.88243 0.533333 8.00003C0.533333 7.11763 1.25093 6.40003 2.13333 6.40003C3.01573 6.40003 3.73333 7.11763 3.73333 8.00003C3.73333 8.88243 3.01573 9.60003 2.13333 9.60003Z" fill="black"/>
<path d="M13.8658 5.8667C12.6895 5.8667 11.7324 6.82377 11.7324 8.00003C11.7324 9.1763 12.6895 10.1334 13.8658 10.1334C15.042 10.1334 15.9991 9.1763 15.9991 8.00003C15.9991 6.82377 15.042 5.8667 13.8658 5.8667ZM13.8658 9.60003C12.9834 9.60003 12.2658 8.88243 12.2658 8.00003C12.2658 7.11763 12.9834 6.40003 13.8658 6.40003C14.7482 6.40003 15.4658 7.11763 15.4658 8.00003C15.4658 8.88243 14.7482 9.60003 13.8658 9.60003Z" fill="black"/>
<path d="M8.00052 5.8667C6.82425 5.8667 5.86719 6.82377 5.86719 8.00003C5.86719 9.1763 6.82425 10.1334 8.00052 10.1334C9.17679 10.1334 10.1339 9.1763 10.1339 8.00003C10.1339 6.82377 9.17679 5.8667 8.00052 5.8667ZM8.00052 9.60003C7.11812 9.60003 6.40052 8.88243 6.40052 8.00003C6.40052 7.11763 7.11812 6.40003 8.00052 6.40003C8.88292 6.40003 9.60052 7.11763 9.60052 8.00003C9.60052 8.88243 8.88292 9.60003 8.00052 9.60003Z" fill="black"/>
</svg>
