<svg width="32" height="32" viewBox="0 0 32 32" fill="none" xmlns="http://www.w3.org/2000/svg">
<path d="M9.37931 6.62061H22.6207C27.7793 6.62061 32 10.8413 32 15.9999C32 21.1585 27.7793 25.3792 22.6207 25.3792H9.37931C4.22069 25.3792 0 21.1585 0 15.9999C0 10.8413 4.22069 6.62061 9.37931 6.62061Z" fill="url(#paint0_linear_902_390)"/>
<path d="M22.6207 22.6208C26.2772 22.6208 29.2414 19.6566 29.2414 16.0001C29.2414 12.3436 26.2772 9.37939 22.6207 9.37939C18.9642 9.37939 16 12.3436 16 16.0001C16 19.6566 18.9642 22.6208 22.6207 22.6208Z" fill="white"/>
<defs>
<linearGradient id="paint0_linear_902_390" x1="32" y1="25.3792" x2="0.301889" y2="25.3792" gradientUnits="userSpaceOnUse">
<stop stop-color="#8EE901"/>
<stop offset="1" stop-color="#4F9C2C"/>
</linearGradient>
</defs>
</svg>
